<?xml version="1.0" encoding="UTF-8" standalone="no"?>
<svg
        version="1.0"
        id="Ebene_1"
        x="0px"
        y="0px"
        width="240"
        height="240"
        viewBox="0 0 240 240"
        enable-background="new 0 0 947 947"
        xml:space="preserve"
        sodipodi:docname="http-lua.svg"
        inkscape:version="1.1.2 (0a00cf5339, 2022-02-04)"
        xmlns:inkscape="http://www.inkscape.org/namespaces/inkscape"
        xmlns:sodipodi="http://sodipodi.sourceforge.net/DTD/sodipodi-0.dtd"
        xmlns:xlink="http://www.w3.org/1999/xlink"
        xmlns="http://www.w3.org/2000/svg"
        xmlns:svg="http://www.w3.org/2000/svg"><sodipodi:namedview
   id="namedview11"
   pagecolor="#ffffff"
   bordercolor="#666666"
   borderopacity="1.0"
   inkscape:pageshadow="2"
   inkscape:pageopacity="0.0"
   inkscape:pagecheckerboard="0"
   showgrid="false"
   inkscape:zoom="1.8986272"
   inkscape:cx="-41.082314"
   inkscape:cy="108.76279"
   inkscape:window-width="2560"
   inkscape:window-height="1295"
   inkscape:window-x="1920"
   inkscape:window-y="128"
   inkscape:window-maximized="1"
   inkscape:current-layer="Ebene_1"
   inkscape:snap-bbox="true"
   inkscape:bbox-nodes="true"><sodipodi:guide
     position="0,240"
     orientation="0,240"
     id="guide9027" /><sodipodi:guide
        position="240,240"
        orientation="240,0"
        id="guide9029"/><sodipodi:guide
        position="240,0"
        orientation="0,-240"
        id="guide9031"/><sodipodi:guide
        position="0,0"
        orientation="-240,0"
        id="guide9033"/></sodipodi:namedview>
    <defs
            id="defs23"><linearGradient
     inkscape:collect="always"
     id="linearGradient1287"><stop
       style="stop-color:#006883;stop-opacity:1;"
       offset="0"
       id="stop1283" /><stop
            style="stop-color:#00acd9;stop-opacity:1"
            offset="1"
            id="stop1285"/></linearGradient>
        <radialGradient
                inkscape:collect="always"
                xlink:href="#linearGradient1287"
                id="radialGradient1289"
                cx="238.22064"
                cy="760.74396"
                fx="238.22064"
                fy="760.74396"
                r="362"
                gradientUnits="userSpaceOnUse"
                gradientTransform="matrix(3.716687,0,0,2.5630872,-647.17091,-1189.1091)"/></defs>

    <g
            id="g9025"
            transform="matrix(0.25329559,0,0,0.25329559,0.19449618,0.196674)"><path
     fill="#000080"
     d="m 835.5,473.6 c 0,-199.8 -162.2,-362 -362,-362 -199.8,0 -362,162.2 -362,362 0,199.8 162.2,362 362,362 199.8,0 362,-162.2 362,-362"
     id="path2"
     style="fill:#0088aa" />
        <path
                fill="#000080"
                d="m 835.5,473.6 c 0,-199.8 -162.2,-362 -362,-362 -199.8,0 -362,162.2 -362,362 0,199.8 162.2,362 362,362 199.8,0 362,-162.2 362,-362"
                id="path849"
                style="fill:url(#radialGradient1289);fill-opacity:1"/>
        <path
                fill="#ffffff"
                d="m 723.54112,331.0486 c 0,-58.5 -47.5,-106 -106,-106 -58.5,0 -106,47.5 -106,106 0,58.5 47.5,106 106,106 58.5,0 106,-47.5 106,-106"
                id="path1428"
                style="fill:#007795;fill-opacity:1"/>
        <path
                fill="#ffffff"
                d="m 729.5,323.6 c 0,-58.5 -47.5,-106 -106,-106 -58.5,0 -106,47.5 -106,106 0,58.5 47.5,106 106,106 58.5,0 106,-47.5 106,-106"
                id="path4"/>
        <path
                id="path6"
                style="fill:#009dc4;fill-opacity:1"
                d="m 835.5,5.5 c -58.5,0 -106,47.5 -106,106 0,58.5 47.5,106 106,106 58.5,0 106,-47.4 106,-106 0,-58.5 -47.5,-106 -106,-106 z m 59.95508,79.408203 v 0.363281 h 9.54687 c 4.42135,0 7.94471,0.583932 10.56836,1.75 2.62366,1.166069 4.51753,3.012581 5.6836,5.539063 1.21465,2.526481 1.82226,5.927541 1.82226,10.203123 0,4.51852 -0.58198,8.03993 -1.74805,10.56641 -1.16606,2.52648 -3.06189,4.32563 -5.68554,5.39453 -2.57507,1.02031 -6.12211,1.5293 -10.64063,1.5293 h -9.54687 v 23.32226 h -8.38086 V 85.271484 h 8.01562 z m -141.16602,0.363281 h 8.38086 v 23.613286 h 19.45899 V 85.271484 h 8.38086 v 58.304686 h -8.38086 v -26.96679 h -19.45899 v 26.96679 h -8.38086 z m 39.86328,0 h 43.875 43.72657 v 7.726563 h -17.70899 v 50.578123 h -8.38086 V 92.998047 h -17.63672 -17.71093 v 50.578123 h -8.38086 V 92.998047 h -17.78321 z m 101.30274,7.726563 V 112.5293 h 9.54687 c 2.76942,0 4.81122,-0.21898 6.12305,-0.65625 1.31183,-0.48586 2.23508,-1.38544 2.76953,-2.69727 0.53445,-1.36041 0.80078,-3.49694 0.80078,-6.41211 0,-2.62365 -0.29196,-4.616148 -0.875,-5.976561 -0.53445,-1.408999 -1.48138,-2.381567 -2.84179,-2.916015 -1.36042,-0.583034 -3.35291,-0.873047 -5.97657,-0.873047 z"/>
        <path
                fill="#ffffff"
                d="m 258.1,627.8 h 117.3 v 26.7 H 227.8 V 417 h 30.3 z"
                id="path8"/>
        <path
                fill="#ffffff"
                d="m 515.5,654.5 v -23.8 c -16,22.5 -31.9,31.3 -57,31.3 -33.2,0 -54.4,-18.2 -54.4,-46.6 V 483.8 h 27 v 120.9 c 0,20.5 13.7,33.6 35.2,33.6 28.3,0 46.6,-22.8 46.6,-57.7 v -96.8 h 27 v 170.7 z"
                id="path10"/>
        <path
                fill="#ffffff"
                d="m 738.4,659.1 c -8.8,2.3 -13,2.9 -18.6,2.9 -17.6,0 -26.1,-7.8 -28,-25.1 -19.2,17.6 -36.5,25.1 -58,25.1 -34.5,0 -56,-19.5 -56,-50.5 0,-22.2 10.1,-37.5 30,-45.6 10.4,-4.2 16.3,-5.5 54.7,-10.4 21.5,-2.6 28.3,-7.5 28.3,-18.9 v -7.2 c 0,-16.3 -13.7,-25.4 -38.1,-25.4 -25.4,0 -37.8,9.4 -40.1,30.3 h -27.4 c 0.7,-16.9 3.9,-26.7 11.7,-35.5 11.4,-12.7 31.9,-19.9 56.7,-19.9 42,0 64.2,16.3 64.2,46.6 v 100.4 c 0,8.5 5.2,13.4 14.7,13.4 1.6,0 2.9,0 5.9,-0.7 z m -47.6,-89 c -9.1,4.2 -15,5.5 -43.7,9.4 -29,4.2 -41.1,13.4 -41.1,31.3 0,17.3 12.4,27.4 33.6,27.4 16,0 29.3,-5.2 40.4,-15.3 8.1,-7.5 10.8,-13 10.8,-22.2 z"
                id="path12"/>
        <path
                fill="none"
                stroke="#808080"
                stroke-width="10.8612"
                stroke-miterlimit="10"
                stroke-dasharray="40.8475"
                d="m 890.6,261 c 33.5,65.8 51,138.6 51,212.5 0,258.4 -209.7,468.1 -468.1,468.1 C 215.1,941.6 5.4,731.9 5.4,473.5 5.4,215.1 215.1,5.4 473.5,5.4 c 83.1,0 164.6,22.1 236.2,63.9"
                id="path16"
                style="stroke:#f2f2f2"/>
        <g
                id="g1464"
                transform="translate(338.46289,334.625)"
                style="fill:#ffffff"><path
       id="path1298"
       style="opacity:1.0;fill:#ffffff;stroke-width:9.25753;stroke-linecap:round"
       d="m 455.68945,-249.35352 v 7.72657 h 17.78321 v 50.57812 h 8.38086 v -50.57812 h 17.71093 17.63672 v 50.57812 h 8.38086 v -50.57812 h 17.70899 v -7.72657 h -43.72657 z" />
            <path
                    id="path1296"
                    style="opacity:1.0;fill:#ffffff;stroke-width:9.25753;stroke-linecap:round"
                    d="m 415.82617,-249.35352 v 58.30469 h 8.38086 v -26.96679 h 19.45899 v 26.96679 h 8.38086 v -58.30469 h -8.38086 v 23.61329 h -19.45899 v -23.61329 z"/>
            <path
                    id="path1294"
                    style="opacity:1.0;fill:#ffffff;stroke-width:9.25753;stroke-linecap:round"
                    d="m 556.99219,-249.7168 -0.36524,0.36328 h -8.01562 v 58.30469 h 8.38086 v -23.32226 h 9.54687 c 1.12963,0 2.19885,-0.032 3.20703,-0.0957 1.00819,-0.0637 1.95507,-0.15971 2.8418,-0.28711 0.88673,-0.12739 1.71326,-0.28536 2.47852,-0.47656 0.76525,-0.1912 1.46951,-0.41484 2.11328,-0.66992 0.65591,-0.26723 1.26712,-0.58099 1.83203,-0.93945 0.5649,-0.35846 1.08476,-0.76134 1.55859,-1.21094 0.47384,-0.44961 0.9005,-0.94567 1.28321,-1.48633 0.3827,-0.54066 0.7202,-1.12619 1.01171,-1.75781 0.29152,-0.63162 0.54709,-1.32601 0.76563,-2.08203 0.21854,-0.75602 0.40125,-1.57459 0.54687,-2.45508 0.14563,-0.88049 0.2534,-1.8231 0.32618,-2.82813 0.0728,-1.00502 0.10937,-2.07154 0.10937,-3.20117 0,-1.06889 -0.0373,-2.08339 -0.11328,-3.04297 -0.0759,-0.95958 -0.18993,-1.86458 -0.3418,-2.71484 -0.15186,-0.85026 -0.34254,-1.64578 -0.57031,-2.38672 -0.22777,-0.74094 -0.49321,-1.42697 -0.79687,-2.05859 -0.29152,-0.63162 -0.62725,-1.22096 -1.00977,-1.76758 -0.38252,-0.54662 -0.81156,-1.05012 -1.28516,-1.51172 -0.47359,-0.4616 -0.99191,-0.88125 -1.55664,-1.25781 -0.56472,-0.37657 -1.17611,-0.71044 -1.83203,-1.00196 -0.65591,-0.29151 -1.36837,-0.5469 -2.13672,-0.76562 -0.76835,-0.21872 -1.59192,-0.40101 -2.47265,-0.54688 -0.88074,-0.14587 -1.81749,-0.25516 -2.81055,-0.32812 -0.99306,-0.073 -2.0431,-0.10938 -3.14844,-0.10938 h -9.54687 z m 0,8.08985 h 9.54687 c 1.31183,0 2.46676,0.0714 3.46289,0.21679 0.49807,0.0727 0.9559,0.16426 1.375,0.27344 0.4191,0.10918 0.79857,0.23705 1.13867,0.38281 0.34011,0.13362 0.65493,0.29408 0.94336,0.48243 0.28844,0.18835 0.55032,0.40344 0.78711,0.64648 0.2368,0.24304 0.44763,0.51483 0.63282,0.8125 0.18518,0.29767 0.3449,0.62236 0.47851,0.97461 0.14576,0.3401 0.27345,0.71957 0.38281,1.13867 0.10937,0.4191 0.20051,0.87694 0.27344,1.375 0.14587,0.99613 0.21875,2.15107 0.21875,3.46289 0,1.45759 -0.0658,2.72048 -0.19922,3.78906 -0.0667,0.53429 -0.14987,1.01988 -0.25,1.45704 -0.10012,0.43715 -0.21795,0.82591 -0.35156,1.16601 -0.13361,0.32796 -0.29045,0.62985 -0.47266,0.90625 -0.1822,0.2764 -0.39029,0.52715 -0.62109,0.75195 -0.2308,0.22481 -0.48429,0.4245 -0.76367,0.59766 -0.27938,0.17316 -0.58415,0.31994 -0.91211,0.44141 -0.32796,0.10931 -0.70193,0.20509 -1.12109,0.28711 -0.41917,0.082 -0.88228,0.15037 -1.39258,0.20507 -1.02061,0.10941 -2.22467,0.16407 -3.60938,0.16407 h -9.54687 z"/></g></g></svg>
